PathFileType	4	(X/Y/Z)	C:/Users/beibeiliu/ov580/test_trc/User3\out6_training_dense_right.trc
DataRate	CameraRate	NumFrames	NumMarkers	Units	OrigDataRate	OrigDataStartFrame	OrigNumFrames
120	120	18	19	mm	120	1	500
Frame#	Time	ThumbCMC			ThumbMCP			ThumbIP			ThumbTip			IndexMCP			IndexPIP			IndexTip			MiddleMCP			MiddlePIP			MiddleTip			RingMCP			RingPIP			RingTip			PinkyMCP			PinkyPIP			PinkyTip			BackHand1			BackHand2			BackHand3	
		X0	Y0	Z0	X1	Y1	Z1	X2	Y2	Z2	X3	Y3	Z3	X4	Y4	Z4	X5	Y5	Z5	X6	Y6	Z6	X7	Y7	Z7	X8	Y8	Z8	X9	Y9	Z9	X10	Y10	Z10	X11	Y11	Z11	X12	Y12	Z12	X13	Y13	Z13	X14	Y14	Z14	X15	Y15	Z15	X16	Y16	Z16	X17	Y17	Z17	X18	Y18	Z18	
0	0	107.942	5.52415	39.8661	85.2102	-1.96317	15.1157	74.7537	-10.1392	-12.5495	72.0106	-19.3173	-33.822	123.382	21.4061	-35.5602	116.466	17.3727	-65.7112	108.734	12.2141	-86.6299	153.253	21.4991	-39.1416	149.686	19.411	-68.5865	151.441	7.7695	-100.062	169.1	14.2094	-30.4563	173.379	14.0504	-57.8132	178.565	4.91716	-85.2953	186.817	0.23799	-14.1593	199.079	-3.40385	-35.1745	208.168	-12.7676	-54.2588	166.61	20.018	18.9702	165.961	23.4099	50.0164	134.537	27.7438	32.714	
1	0.00833333	105.339	6.27782	34.4699	88.6273	-2.22469	15.925	75.9752	-9.5924	-14.3129	67.8825	-19.4364	-32.4256	122.72	21.0384	-35.8614	113.824	19.519	-65.5319	111.647	10.8355	-90.4358	148.705	21.867	-38.7367	148.258	18.8627	-72.9319	149.866	7.66064	-102.397	166.194	15.6972	-32.9253	176.47	13.6969	-54.8127	175.98	5.45524	-85.2742	185.102	-0.174893	-13.9436	198.734	-3.17245	-36.5001	203.335	-12.5438	-58.5141	165.477	19.3702	18.639	165.38	22.1082	49.1557	133.631	28.9984	29.1843	
2	0.0166667	103.589	6.61796	39.5689	88.6564	-1.99496	13.3262	73.9218	-9.14715	-13.5951	70.7285	-18.2707	-33.5825	122.827	21.5057	-36.417	113.085	20.5046	-61.9325	112.084	12.3119	-87.641	148.703	22.5001	-43.9594	147.376	19.2357	-72.6351	149.335	6.57292	-103.658	168.46	14.838	-31.5467	171.862	14.5281	-55.2453	175.811	5.11644	-83.9696	185.232	1.51086	-14.9668	197.576	-3.38807	-33.938	203.636	-10.469	-54.8039	166.218	19.5628	17.4607	168.494	22.5164	46.4851	135.421	29.3076	30.6789	
3	0.025	102.604	7.24188	36.4933	85.654	-1.39746	15.7839	74.5264	-8.87589	-14.9703	68.4406	-19.1077	-34.7744	120.603	22.0816	-34.5305	112.697	19.5425	-66.1072	112.738	11.8585	-89.3434	152.322	21.9592	-41.6941	151.044	18.2918	-73.4234	151.147	6.18642	-101.544	166.931	16.6998	-33.0643	173.302	14.8512	-59.3306	174.07	5.20844	-84.8206	184.56	1.23089	-13.9408	195.824	-2.32491	-32.444	204.972	-11.8809	-58.2983	163.637	21.9778	17.1463	166.398	20.8353	48.9347	131.742	29.1978	26.7997	
4	0.0333333	101.53	8.53117	35.1129	86.6712	-0.939506	14.7499	73.6732	-8.23978	-13.5122	69.4338	-18.8733	-35.3835	121.84	22.6035	-38.5361	112.567	21.0484	-63.2227	112.817	12.0317	-88.401	147.273	22.8777	-38.7023	148.512	18.2887	-73.4278	147.814	8.34507	-100.579	165.546	14.7083	-28.691	170.183	15.2706	-60.1925	174.211	5.92771	-86.6487	185	-0.270632	-11.601	196.921	-2.0717	-37.1289	204.221	-12.5632	-58.3754	163.67	21.0321	20.1959	169.309	22.4925	48.9005	136.523	28.3452	30.8385	
5	0.0416667	102.149	7.82854	33.9793	88.6231	-1.36132	14.1332	75.2305	-9.07281	-9.24757	69.7255	-18.388	-31.8968	118.668	22.01	-37.017	116.298	19.3782	-65.8685	106.362	12.1702	-91.1044	149.572	22.3467	-39.063	150.857	19.4159	-70.1385	147.217	8.76972	-99.185	164.85	16.3437	-32.2587	173.148	15.7306	-56.957	172.059	6.8133	-82.8631	187.199	0.665483	-14.8439	194.484	-1.15848	-34.2418	206.384	-11.8936	-59.6242	167.722	19.7072	17.4598	166.442	22.1007	45.6153	136.218	28.513	26.6776	
6	0.05	104.33	6.93759	35.0784	84.8024	-0.185722	15.4392	70.72	-7.93504	-12.2281	65.8729	-18.7307	-32.0151	120.122	22.0123	-37.2081	111.318	20.2053	-65.6994	112.112	12.0509	-89.9694	147.025	23.5357	-40.2114	148.445	19.6685	-70.15	147.941	8.07995	-100.78	169.019	16.2154	-31.5806	174.173	15.1811	-56.8848	175.694	6.29991	-82.6506	183.863	0.531209	-12.9203	198.296	-3.73108	-35.5145	205.812	-12.8719	-59.5867	164.17	21.7705	20.2284	163.887	22.4885	47.937	133.774	28.4443	27.4098	
7	0.0583333	102.857	6.82752	39.4283	85.2766	-0.416089	15.1043	72.1976	-8.25023	-11.1745	66.8251	-18.0036	-33.9723	118.257	23.243	-37.2341	114.469	18.9593	-67.301	109.753	11.9928	-92.2613	149.115	22.6914	-41.7922	148.684	19.2872	-71.4575	150.934	6.66171	-104.214	169.509	15.4913	-32.3387	175.029	14.7028	-57.9626	172.869	7.73056	-82.881	183.921	0.769078	-11.4579	194.941	-1.52217	-32.769	206.735	-10.546	-56.9682	164.053	23.2263	16.0475	164.596	23.2894	49.9838	131.411	29.7687	30.4695	
8	0.0666667	105.366	6.77832	34.2915	84.9405	-0.827117	15.2992	73.9273	-8.53031	-9.50745	66.6067	-18.7281	-31.6376	119.961	22.6841	-38.659	112.989	20.8807	-65.8531	111.149	13.6366	-87.9988	149.596	23.3944	-40.4055	149.576	18.9285	-73.5635	147.894	9.3059	-98.727	165.642	16.3613	-28.5801	171.261	15.9481	-55.4229	174.334	6.82025	-85.6111	185.485	1.5743	-12.7904	194.186	-1.49444	-35.7001	206.398	-11.6397	-53.895	167.889	22.4508	17.9189	167.679	22.3186	47.0308	134.513	28.3307	31.3671	
9	0.075	102.601	7.58048	39.1101	84.6412	-1.70868	14.596	72.4569	-8.52111	-9.70915	66.6285	-18.0995	-33.678	121.847	23.094	-38.4355	111.353	20.9318	-62.0445	109.434	11.8714	-90.1519	146.459	24.9574	-42.9168	148.864	19.5122	-73.158	146.845	10.2454	-99.715	166.577	16.3446	-28.5196	170.221	16.4096	-55.3341	172.794	7.6707	-83.7071	187.537	1.14152	-12.2998	195.55	-1.27442	-34.6617	203.047	-8.51033	-56.5111	162.099	20.7006	20.0603	167.163	21.4512	46.0586	136.314	29.6404	32.3635	
10	0.0833333	105.622	7.77813	36.0268	83.2858	0.0259466	12.5522	70.1538	-8.81068	-11.6436	68.2637	-18.6158	-34.7864	120.111	23.3594	-34.4697	111.264	20.3292	-65.8772	112.803	13.445	-88.0348	149.242	23.3756	-41.8352	151.875	20.3712	-69.1154	149.694	8.97928	-99.4342	168.922	16.9923	-31.6724	172.418	16.6217	-55.7801	174.157	7.66429	-83.1716	188.217	0.224639	-12.408	195.298	-1.46136	-34.4337	204.265	-9.91529	-59.1724	162.716	21.0968	21.9336	166.074	23.3224	50.1763	135.13	27.4911	32.6053	
11	0.0916667	104.183	6.82054	40.172	88.9064	-0.576951	14.6243	72.7545	-8.42032	-15.0121	67.2336	-18.2799	-36.7008	118.618	23.0563	-36.988	114.079	20.455	-65.482	110.529	12.074	-90.3863	146.863	23.5702	-38.843	150.832	20.3378	-70.8601	147.358	10.0792	-100.535	168.487	17.3687	-30.8975	173.729	15.8109	-55.4818	173.453	6.31121	-84.944	184.976	2.7321	-16.6194	197.42	-1.88052	-37.0442	205.845	-11.2541	-56.9965	165.723	21.4732	16.9513	165.717	22.7073	48.4155	131.787	28.5272	28.1532	
12	0.1	102.051	7.26975	38.719	87.9949	-0.943768	13.8684	74.0293	-8.88566	-10.0886	68.2512	-17.4663	-32.8086	118.148	24.3715	-39.1456	114.733	20.3675	-65.4577	108.249	13.6047	-86.4478	147.212	24.785	-43.755	152.691	18.5203	-72.9653	150.49	8.17582	-100.298	167.437	17.3329	-32.4811	175.337	14.7842	-58.7922	172.608	7.45621	-85.0639	187.728	2.67537	-15.2458	195.707	-1.22498	-35.9842	203.436	-10.2896	-57.5711	164.171	23.7552	18.1578	165.354	21.9933	47.4487	132.292	30.3533	31.7155	
13	0.108333	106.583	6.8912	35.5309	87.2369	-1.36687	12.855	75.9635	-7.99054	-12.2642	68.4768	-17.8735	-31.7511	122.717	22.6596	-36.8746	116.718	20.5898	-65.635	110.184	11.9758	-92.3092	152.488	23.4845	-39.1316	153.014	20.2079	-69.3348	152.357	7.4885	-102.771	170.985	16.8682	-33.1799	170.282	16.148	-56.9803	175.659	7.76722	-81.4678	188.609	1.22452	-11.5655	198.426	-2.92123	-36.5974	203.045	-9.19853	-54.9713	163.915	22.4436	20.9989	166.145	22.6382	46.2623	132.11	30.5817	31.4419	
14	0.116667	104.823	7.0392	35.3278	84.2854	-1.21265	14.7773	74.8723	-8.31557	-12.1176	68.6091	-17.7218	-37.377	120.276	24.5151	-40.2129	116.653	19.7344	-67.8968	109.56	12.6692	-89.7184	148.318	23.8343	-41.4478	153.536	20.25	-68.6545	151.298	8.30315	-101.839	171.697	16.5213	-31.468	174.376	16.066	-60.0483	175.096	6.8206	-86.194	187.406	1.10361	-12.4198	200.924	-2.24415	-32.2139	206.65	-10.9327	-57.7172	167.563	21.5748	19.6264	164.485	23.7998	48.0538	133.381	28.6461	27.5657	
15	0.125	103.67	8.2403	35.0325	87.2072	-1.46648	13.9011	73.7769	-8.54351	-11.1928	69.3816	-17.9738	-32.8901	120.009	24.3085	-39.0471	113.736	19.5823	-67.4379	108.452	12.7963	-89.8222	150.14	23.4749	-43.4977	149.633	19.7471	-72.8979	149.548	10.2746	-100.582	167.537	17.9246	-32.6621	177.462	16.5073	-55.1039	178.401	7.52823	-84.4155	188.792	1.6029	-12.8569	200.328	-2.68424	-32.8527	207.069	-10.2179	-56.0355	169.384	22.799	20.9207	169.213	24.0971	46.3823	134.124	28.6216	31.2452	
16	0.133333	107.836	7.16692	36.5721	86.3538	-0.733688	13.4964	77.1012	-8.18506	-14.4598	69.7767	-18.1047	-34.7689	120.862	24.4857	-39.5029	113.24	20.5791	-65.2039	112.798	12.512	-91.5114	149.894	24.7629	-39.712	150.658	20.489	-69.389	155.019	9.51467	-98.4289	168.354	16.761	-28.02	175.305	15.7702	-58.0465	177.197	7.77457	-85.2997	189.221	1.76665	-10.1454	199.326	-2.56575	-36.0644	206.72	-10.6827	-57.6325	168.098	23.8579	21.9401	169.384	24.4023	50.6162	135.865	28.4877	32.9098	
17	0.141667	105.562	8.86959	35.4791	90.1919	-0.738604	10.7682	74.7814	-7.93536	-11.2348	70.0528	-16.289	-32.0877	124.222	25.9439	-39.5483	117.639	22.2146	-65.4616	113.915	14.1857	-88.4071	153.401	25.3133	-42.1254	153.6	20.7313	-72.1694	150.785	9.87979	-100.808	168.442	19.4844	-31.1916	177.672	15.5476	-59.8308	175.299	7.1203	-83.3057	188.926	4.56248	-14.8579	200.28	-1.54893	-36.9351	209.89	-10.9652	-55.696	170.066	24.4463	22.1502	169.462	24.1562	52.902	133.607	29.6863	33.1894	
